<svg width="200" height="200" viewBox="0 0 200 200" fill="none" xmlns="http://www.w3.org/2000/svg">
<g clip-path="url(#clip0_781_2)">
<rect width="200" height="200" rx="100" fill="white"/>
<path d="M155.5 127.207C155.5 132.422 154.504 137.314 152.512 141.885C150.52 146.455 147.795 150.469 144.338 153.926C140.939 157.324 136.955 160.02 132.385 162.012C127.814 164.004 122.922 165 117.707 165H54.6895V38.9648H117.707C122.922 38.9648 127.814 39.9609 132.385 41.9531C136.955 43.9453 140.939 46.6699 144.338 50.127C147.795 53.5254 150.52 57.5098 152.512 62.0801C154.504 66.6504 155.5 71.543 155.5 76.7578C155.5 79.1016 155.178 81.5039 154.533 83.9648C153.889 86.4258 152.98 88.7988 151.809 91.084C150.637 93.3691 149.23 95.4492 147.59 97.3242C145.949 99.1992 144.133 100.752 142.141 101.982C144.191 103.096 146.037 104.619 147.678 106.553C149.318 108.428 150.725 110.508 151.896 112.793C153.068 115.078 153.947 117.48 154.533 120C155.178 122.461 155.5 124.863 155.5 127.207ZM79.9141 139.775H117.707C119.465 139.775 121.105 139.453 122.629 138.809C124.152 138.164 125.471 137.285 126.584 136.172C127.756 135 128.664 133.652 129.309 132.129C129.953 130.605 130.275 128.965 130.275 127.207C130.275 125.449 129.953 123.809 129.309 122.285C128.664 120.762 127.756 119.443 126.584 118.33C125.471 117.158 124.152 116.25 122.629 115.605C121.105 114.961 119.465 114.639 117.707 114.639H79.9141V139.775ZM79.9141 89.4141H117.707C119.465 89.4141 121.105 89.0918 122.629 88.4473C124.152 87.8027 125.471 86.9238 126.584 85.8105C127.756 84.6387 128.664 83.291 129.309 81.7676C129.953 80.1855 130.275 78.5156 130.275 76.7578C130.275 75 129.953 73.3594 129.309 71.8359C128.664 70.3125 127.756 68.9941 126.584 67.8809C125.471 66.709 124.152 65.8008 122.629 65.1562C121.105 64.5117 119.465 64.1895 117.707 64.1895H79.9141V89.4141Z" fill="#00C0AD"/>
</g>
<defs>
<clipPath id="clip0_781_2">
<rect width="200" height="200" rx="100" fill="white"/>
</clipPath>
</defs>
</svg>
